HIERARCHY
ROOT Hips
{
 OFFSET 0.000000 0.000000 0.000000
 CHANNELS 6 Xposition Yposition Zposition Yrotation Xrotation Zrotation
 JOINT Chest
 {
  OFFSET 0.000000 9.585900 0.002600
  CHANNELS 3 Yrotation Xrotation Zrotation
  JOINT Chest2
  {
   OFFSET 0.000000 9.601200 -0.005300
   CHANNELS 3 Yrotation Xrotation Zrotation
   JOINT Chest3
   {
    OFFSET 0.000000 9.561800 0.000000
    CHANNELS 3 Yrotation Xrotation Zrotation
    JOINT Chest4
    {
     OFFSET 0.000000 9.552100 0.000000
     CHANNELS 3 Yrotation Xrotation Zrotation
     JOINT Neck
     {
      OFFSET 0.000000 14.453000 0.000000
      CHANNELS 3 Yrotation Xrotation Zrotation
      JOINT Head
      {
       OFFSET 0.000000 8.936500 -0.011300
       CHANNELS 3 Yrotation Xrotation Zrotation
       End Site
       {
        OFFSET 0.000000 17.073600 -0.006000
       }
      }
     }
     JOINT RightCollar
     {
      OFFSET -2.921100 9.558500 0.000000
      CHANNELS 3 Yrotation Xrotation Zrotation
      JOINT RightShoulder
      {
       OFFSET -13.519700 0.000000 0.000000
       CHANNELS 3 Yrotation Xrotation Zrotation
       JOINT RightElbow
       {
        OFFSET 0.000000 -29.696600 0.000000
        CHANNELS 3 Yrotation Xrotation Zrotation
        JOINT RightWrist
        {
         OFFSET 0.000000 -24.004700 0.000000
         CHANNELS 3 Yrotation Xrotation Zrotation
         End Site
         {
          OFFSET 0.000000 -17.728500 0.000000
         }
        }
       }
      }
     }
     JOINT LeftCollar
     {
      OFFSET 2.921100 9.558500 0.000000
      CHANNELS 3 Yrotation Xrotation Zrotation
      JOINT LeftShoulder
      {
       OFFSET 13.519700 0.000000 0.000000
       CHANNELS 3 Yrotation Xrotation Zrotation
       JOINT LeftElbow
       {
        OFFSET 0.000000 -29.696600 0.000000
        CHANNELS 3 Yrotation Xrotation Zrotation
        JOINT LeftWrist
        {
         OFFSET 0.000000 -24.004700 0.000000
         CHANNELS 3 Yrotation Xrotation Zrotation
         End Site
         {
          OFFSET 0.000000 -17.728500 0.000000
         }
        }
       }
      }
     }
    }
   }
  }
 }
 JOINT RightHip
 {
  OFFSET -7.771700 -0.012900 -0.001300
  CHANNELS 3 Yrotation Xrotation Zrotation
  JOINT RightKnee
  {
   OFFSET 0.000000 -40.869800 0.001200
   CHANNELS 3 Yrotation Xrotation Zrotation
   JOINT RightAnkle
   {
    OFFSET 0.000000 -39.717900 0.002100
    CHANNELS 3 Yrotation Xrotation Zrotation
    JOINT RightToe
    {
     OFFSET 0.000000 -4.965400 11.033500
     CHANNELS 3 Yrotation Xrotation Zrotation
     End Site
     {
      OFFSET 0.000000 -1.423100 5.872300
     }
    }
   }
  }
 }
 JOINT LeftHip
 {
  OFFSET 7.771700 -0.012900 -0.001300
  CHANNELS 3 Yrotation Xrotation Zrotation
  JOINT LeftKnee
  {
   OFFSET 0.000000 -40.869800 0.001200
   CHANNELS 3 Yrotation Xrotation Zrotation
   JOINT LeftAnkle
   {
    OFFSET 0.000000 -39.717900 0.002100
    CHANNELS 3 Yrotation Xrotation Zrotation
    JOINT LeftToe
    {
     OFFSET 0.000000 -4.965400 11.033500
     CHANNELS 3 Yrotation Xrotation Zrotation
     End Site
     {
      OFFSET 0.000000 -1.423100 5.872300
     }
    }
   }
  }
 }
}
MOTION
Frames: 9
Frame Time: 0.008333
0.000000 85.388000 0.000000 0.000000 -5.767877 0.000000 0.000000 11.653817 0.000000 0.000000 -5.885947 0.000000 0.000000 -0.000000 0.000000 0.000000 -0.000000 0.000000 0.000000 12.528835 0.000000 0.000000 0.711642 0.000000 0.000000 -0.000000 0.000000 0.000000 0.000000 -90.000000 0.000000 -2.309062 0.000000 0.000000 2.309062 0.000000 0.000000 -0.000000 0.000000 0.000000 -0.000000 90.000000 0.000000 -2.309062 0.000000 0.000000 2.309062 0.000000 0.000000 8.520406 0.000000 0.000000 1.905762 0.000000 -0.000000 -4.658285 0.000000 0.000000 -0.000000 0.000000 0.000000 8.520406 0.000000 0.000000 1.905762 0.000000 -0.000000 -4.658285 0.000000 0.000000 -0.000000 0.000000
-53.978967 62.672868 14.854430 173.802285 -51.711034 0.599629 6.959568 23.847518 -0.533933 1.086961 3.739899 -0.267107 1.735319 5.992729 -0.394042 5.743756 19.811666 -0.613095 0.738482 17.326597 4.611887 -0.190776 -3.541178 8.264388 5.169540 3.851946 8.076711 2.520280 -13.541728 -13.074902 -80.751132 -49.911732 123.759086 1.048009 2.152691 -3.205831 -4.674802 3.547199 4.840496 4.090287 -4.624633 14.612808 91.981031 -68.760352 -123.498559 9.107954 -2.269192 -7.613664 -1.901723 -16.770406 -3.892559 -0.785778 66.164707 -4.380006 1.847858 -12.362282 7.436685 0.100159 -0.063895 -0.863430 2.809485 -9.612531 9.023996 133.098082 83.168664 142.045267 -5.980426 3.869115 -6.686302 1.687462 -38.039505 -4.960934
-53.992484 62.666753 14.860151 173.754536 -51.672594 0.606094 6.887732 23.853968 -0.537515 1.079871 3.730791 -0.262957 1.724351 5.979156 -0.387757 5.717920 19.797049 -0.597236 0.713088 17.219766 4.562300 -0.227183 -3.739863 8.185090 5.158915 3.859403 8.037078 2.536272 -13.510413 -13.025450 -80.748312 -49.917119 123.760350 1.061685 2.158720 -3.189046 -4.713717 3.524578 4.773896 4.011870 -4.648002 14.666902 91.798045 -68.779157 -123.292530 9.120931 -2.270789 -7.491061 -2.034851 -16.718242 -3.833843 -0.675563 65.964294 -4.198764 1.798284 -12.357645 7.485785 0.109565 0.026152 -0.875840 2.801837 -9.675528 8.991617 133.114583 83.124822 142.049870 -5.933290 3.947553 -6.600177 1.732298 -38.111259 -5.087114
-54.007776 62.660006 14.866727 173.699420 -51.632323 0.612334 6.819252 23.857992 -0.533803 1.072210 3.722740 -0.258441 1.712543 5.967081 -0.380852 5.688641 19.785170 -0.579537 0.689690 17.109441 4.512173 -0.260006 -3.945123 8.104155 5.152808 3.870801 7.993115 2.546679 -13.474143 -12.966775 -80.731934 -49.919445 123.748495 1.069570 2.159630 -3.182494 -4.751676 3.487942 4.701025 3.925696 -4.657104 14.730361 91.690536 -68.820641 -123.160334 9.137000 -2.275674 -7.398631 -2.149555 -16.645958 -3.758452 -0.596149 65.723523 -4.036000 1.751866 -12.350613 7.527780 0.115217 0.109253 -0.880090 2.794597 -9.738093 8.962596 133.334092 83.103565 142.261432 -5.861540 4.020484 -6.524814 1.778830 -38.178401 -5.206513
-54.021858 62.649313 14.876951 173.599017 -51.564875 0.634527 6.783546 23.833213 -0.510749 1.063973 3.716336 -0.253532 1.699779 5.957522 -0.373371 5.655140 19.777496 -0.559916 0.667969 16.996019 4.461453 -0.289696 -4.156341 8.021780 5.150688 3.882786 7.944057 2.554744 -13.436070 -12.902794 -80.701323 -49.919584 123.719976 1.070089 2.154003 -3.187894 -4.790347 3.432634 4.617352 3.835254 -4.651220 14.804933 91.649850 -68.880238 -123.100636 9.158307 -2.283231 -7.338433 -2.229771 -16.590163 -3.653581 -0.563450 65.453403 -3.911733 1.725827 -12.331061 7.527286 0.114370 0.178577 -0.848308 2.811548 -9.826970 8.954708 133.569226 83.082920 142.487015 -5.789675 4.082411 -6.446277 1.819071 -38.237720 -5.323631
-54.030021 62.634684 14.891066 173.433043 -51.470372 0.666465 6.807068 23.779020 -0.442332 1.055572 3.711742 -0.247991 1.686675 5.950765 -0.364911 5.619438 19.774168 -0.536752 0.646637 16.879918 4.410411 -0.318497 -4.372637 7.938826 5.144145 3.891138 7.887860 2.560015 -13.391917 -12.835195 -80.668576 -49.918074 123.687764 1.065080 2.145144 -3.205685 -4.834877 3.358033 4.522843 3.744036 -4.632257 14.889190 91.659300 -68.947641 -123.105099 9.180528 -2.291566 -7.306019 -2.271211 -16.565196 -3.496618 -0.570774 65.175649 -3.823710 1.760466 -12.268541 7.342804 0.094937 0.206784 -0.679127 2.863948 -9.943012 8.991794 133.818195 83.062394 142.731430 -5.716943 4.138009 -6.369096 1.871864 -38.292578 -5.451854
-54.037293 62.624836 14.901248 173.323552 -51.416780 0.653017 6.800330 23.768162 -0.364639 1.047249 3.709019 -0.242149 1.673667 5.946803 -0.355865 5.582914 19.775059 -0.511420 0.626125 16.761285 4.360315 -0.346077 -4.593696 7.857436 5.130022 3.892447 7.829776 2.560877 -13.337311 -12.766512 -80.645068 -49.916687 123.666011 1.059261 2.134720 -3.232706 -4.885981 3.265203 4.426705 3.652974 -4.602441 14.976258 91.693974 -69.013948 -123.146067 9.200034 -2.298155 -7.300071 -2.335383 -16.508612 -3.338818 -0.631981 64.923171 -3.794883 1.889526 -12.143172 6.892600 0.044312 0.168862 -0.323144 2.897819 -10.013018 9.040763 134.422232 83.088163 143.362015 -5.621878 4.180362 -6.324723 1.959512 -38.338034 -5.571700
-54.049635 62.616283 14.909188 173.256015 -51.379042 0.643597 6.752870 23.779483 -0.324220 1.038769 3.708211 -0.236539 1.660262 5.945760 -0.347115 5.543613 19.780535 -0.487018 0.608145 16.640694 4.312128 -0.369708 -4.818443 7.778696 5.110689 3.886676 7.773993 2.562677 -13.273832 -12.698843 -80.636057 -49.919017 123.656204 1.053073 2.122302 -3.263578 -4.938629 3.159130 4.335926 3.561843 -4.565579 15.061890 91.739996 -69.073424 -123.208131 9.217458 -2.299293 -7.319660 -2.394138 -16.464842 -3.226642 -0.793355 64.725481 -3.876039 2.085913 -11.957465 6.349012 -0.021543 0.073168 0.085014 2.887351 -10.068684 9.034737 134.559947 83.053716 143.492041 -5.553643 4.224125 -6.250074 2.001162 -38.383876 -5.695417
-54.061624 62.607895 14.915743 173.196743 -51.352593 0.633748 6.698242 23.803040 -0.288465 1.030040 3.709270 -0.231163 1.646395 5.947560 -0.338657 5.501109 19.790459 -0.463682 0.592411 16.519111 4.265181 -0.389589 -5.044977 7.701459 5.085330 3.875302 7.718476 2.564695 -13.205767 -12.630552 -80.635025 -49.925403 123.651065 1.046264 2.111200 -3.291656 -4.991618 3.047850 4.250448 3.472396 -4.528762 15.146362 91.781847 -69.122846 -123.280562 9.232643 -2.298649 -7.357538 -2.425365 -16.437842 -3.129580 -1.012446 64.584133 -4.029178 2.271303 -11.732800 5.935086 -0.038067 -0.095142 0.372421 2.872639 -10.111062 9.023610 134.694011 83.020732 143.618471 -5.483326 4.265386 -6.176084 2.033513 -38.427977 -5.813802
